# xmcd
#
# Track frame offsets:
#	150
#	12304
#	28515
#	44952
#	57145
#	72389
#	77500
#	90902
#	108474
#	122271
#	139859
#	157000
#
# Disc length: 2130 seconds
#
# Revision: 2
# Processed by: cddbd v1.5.2PL0 Copyright (c) Steve Scherf et al.
# Submitted via: audiograbber 1.83.01
#
DISCID=9808500c
DTITLE=Pine Mountain Railroad - Alone With Forever
DYEAR=2007
DGENRE=Bluegrass
TTITLE0=Clementine
TTITLE1=Blame it On the Rain
TTITLE2=Two Shoes
TTITLE3=Nowhere, Caroline
TTITLE4=Train That's Comin'
TTITLE5=Tennessee Pride
TTITLE6=Whippoorwill
TTITLE7=Awful Lonesome Train
TTITLE8=I Heard the Bluebirds Sing
TTITLE9=Heaven's Greeting
TTITLE10=Captain
TTITLE11=Who Picks the Banjer 'Round Here
EXTD=Correct title on Track 1
EXTT0=
EXTT1=
EXTT2=
EXTT3=
EXTT4=
EXTT5=
EXTT6=
EXTT7=
EXTT8=
EXTT9=
EXTT10=
EXTT11=
PLAYORDER=
